<?xml version="1.0" encoding="utf-8"?>
<!-- Generator: Adobe Illustrator 25.3.1, SVG Export Plug-In . SVG Version: 6.00 Build 0)  -->
<svg version="1.1" id="Layer_1" xmlns="http://www.w3.org/2000/svg" xmlns:xlink="http://www.w3.org/1999/xlink" x="0px" y="0px"
	 viewBox="0 0 450 82.74" style="enable-background:new 0 0 450 82.74;" xml:space="preserve">
<style type="text/css">
	.st0{fill:#FFFFFF;}
</style>
<g>
	<g>
		<path class="st0" d="M17.41,39.7h0.19c3.35-6.03,9.09-8.71,15.88-8.71h3.35v16.74c-2.39-1.34-4.69-1.63-7.37-1.63
			c-9.66,0-12.06,6.41-12.06,14.83v19.81H0V31.66h17.41V39.7z"/>
	</g>
	<g>
		<path class="st0" d="M99.73,56.25c0,16.65-13.78,26.12-29.57,26.12c-15.69,0-29.57-9.38-29.57-26.12s13.78-26.22,29.57-26.22
			S99.73,39.5,99.73,56.25z M58.96,56.25c0,6.22,4.11,11,11.19,11c7.08,0,11.19-4.78,11.19-11c0-6.03-4.11-11.1-11.19-11.1
			C63.08,45.15,58.96,50.22,58.96,56.25z"/>
	</g>
	<g>
		<path class="st0" d="M105.05,1.33h17.41v35.12c3.73-4.31,9.57-6.41,15.21-6.41c14.54,0,24.59,12.06,24.59,26.12
			c0,14.16-10.14,26.22-24.78,26.22c-5.74,0-11.67-2.2-14.83-7.08h-0.19v5.45h-17.41L105.05,1.33L105.05,1.33z M121.89,56.25
			c0,6.22,4.11,11,11.19,11c7.08,0,11.19-4.78,11.19-11c0-6.03-4.11-11.1-11.19-11.1C126.01,45.15,121.89,50.22,121.89,56.25z"/>
	</g>
	<g>
		<path class="st0" d="M226.26,56.25c0,16.65-13.78,26.12-29.57,26.12c-15.69,0-29.57-9.38-29.57-26.12s13.78-26.22,29.57-26.22
			S226.26,39.5,226.26,56.25z M185.5,56.25c0,6.22,4.11,11,11.19,11s11.19-4.78,11.19-11c0-6.03-4.11-11.1-11.19-11.1
			C189.61,45.15,185.5,50.22,185.5,56.25z"/>
	</g>
	<g>
		<path class="st0" d="M253.43,80.74h-17.41V46.01h-6.12V31.66h6.12v-6.22c0-6.79,0.19-11.77,4.98-17.22
			c4.31-5.07,10.53-7.85,17.13-7.85c2.68,0,5.07,0.48,7.46,1.72v15.02c-2.01-0.86-3.83-1.63-6.12-1.63c-4.5,0-6.03,2.68-6.03,8.23
			v7.94h12.15v14.35h-12.15V80.74z"/>
	</g>
	<g>
		<path class="st0" d="M289.31,80.74H271.9V1.33h17.41V80.74z"/>
	</g>
	<g>
		<path class="st0" d="M353.88,56.25c0,16.65-13.78,26.12-29.57,26.12c-15.69,0-29.57-9.38-29.57-26.12s13.78-26.22,29.57-26.22
			S353.88,39.5,353.88,56.25z M313.12,56.25c0,6.22,4.11,11,11.19,11c7.08,0,11.19-4.78,11.19-11c0-6.03-4.11-11.1-11.19-11.1
			C317.24,45.15,313.12,50.22,313.12,56.25z"/>
	</g>
	<g>
		<path class="st0" d="M382.11,58.26l12.34-26.6h10.33l12.34,26.6l12.34-26.6h19.23l-25.64,49.09h-11.29l-12.15-26.89l-12.15,26.89
			h-11.29l-25.64-49.09h19.33L382.11,58.26z"/>
	</g>
</g>
</svg>
